<svg width="40" height="40" viewBox="0 0 40 40" fill="none" xmlns="http://www.w3.org/2000/svg">
<path fill-rule="evenodd" clip-rule="evenodd" d="M5.41602 4.99998C5.41602 3.38915 6.72185 2.08331 8.33268 2.08331H31.666C33.2769 2.08331 34.5827 3.38916 34.5827 4.99998V13.6647C34.5827 14.3551 34.023 14.9147 33.3327 14.9147C32.6424 14.9147 32.0827 14.3551 32.0827 13.6647V4.99998C32.0827 4.76985 31.8962 4.58331 31.666 4.58331H8.33268C8.10257 4.58331 7.91602 4.76986 7.91602 4.99998V35C7.91602 35.2301 8.10255 35.4166 8.33268 35.4166H16.666C17.3563 35.4166 17.916 35.9763 17.916 36.6666C17.916 37.357 17.3563 37.9166 16.666 37.9166H8.33268C6.72187 37.9166 5.41602 36.6108 5.41602 35V4.99998Z" fill="#58A429"/>
<path fill-rule="evenodd" clip-rule="evenodd" d="M12.082 11.6666C12.082 10.9763 12.6417 10.4166 13.332 10.4166H24.1654C24.8557 10.4166 25.4154 10.9763 25.4154 11.6666C25.4154 12.357 24.8557 12.9166 24.1654 12.9166H13.332C12.6417 12.9166 12.082 12.357 12.082 11.6666Z" fill="#58A429"/>
<path fill-rule="evenodd" clip-rule="evenodd" d="M12.082 17.4999C12.082 16.8096 12.6417 16.2499 13.332 16.2499H17.4987C18.189 16.2499 18.7487 16.8096 18.7487 17.4999C18.7487 18.1903 18.189 18.7499 17.4987 18.7499H13.332C12.6417 18.7499 12.082 18.1903 12.082 17.4999Z" fill="#58A429"/>
<path fill-rule="evenodd" clip-rule="evenodd" d="M35.4167 28.3333C35.4167 24.4213 32.2453 21.2499 28.3333 21.2499C24.4213 21.2499 21.25 24.4213 21.25 28.3333C21.25 32.2453 24.4213 35.4166 28.3333 35.4166C32.2453 35.4166 35.4167 32.2453 35.4167 28.3333ZM28.3333 18.7499C33.626 18.7499 37.9167 23.0406 37.9167 28.3333C37.9167 33.6259 33.626 37.9166 28.3333 37.9166C23.0407 37.9166 18.75 33.6259 18.75 28.3333C18.75 23.0406 23.0407 18.7499 28.3333 18.7499Z" fill="#58A429"/>
<path fill-rule="evenodd" clip-rule="evenodd" d="M28.332 28.7499C29.0224 28.7499 29.582 29.3096 29.582 29.9999V32.4999C29.582 33.1903 29.0224 33.7499 28.332 33.7499C27.6417 33.7499 27.082 33.1903 27.082 32.4999V29.9999C27.082 29.3096 27.6417 28.7499 28.332 28.7499Z" fill="#58A429"/>
<path d="M28.3327 26.6666C29.2532 26.6666 29.9993 25.9205 29.9993 25C29.9993 24.0795 29.2532 23.3333 28.3327 23.3333C27.4122 23.3333 26.666 24.0795 26.666 25C26.666 25.9205 27.4122 26.6666 28.3327 26.6666Z" fill="#58A429"/>
</svg>
