<svg width="38" height="38" viewBox="0 0 38 38" fill="none" xmlns="http://www.w3.org/2000/svg">
<path d="M15.0189 21.5994H20.1175C23.2557 21.5994 26.1225 23.1785 27.7878 25.8234C28.1005 26.3203 28.7568 26.4702 29.2524 26.1562C29.7481 25.8435 29.898 25.1885 29.5853 24.6916C28.0876 22.3111 25.7967 20.6399 23.1672 19.9034C25.9053 18.0835 27.717 14.9736 27.717 11.4471C27.717 5.8516 23.1648 1.29828 17.5682 1.29828C11.9715 1.29828 7.42058 5.85042 7.42058 11.4459C7.42058 14.9748 9.23223 18.0858 11.9727 19.9046C7.26125 21.2371 3.79492 25.5661 3.79492 30.6966V32.1483C3.79492 33.7463 4.92322 35.1177 6.47168 35.4104C10.0808 36.1127 13.8139 36.4679 17.5682 36.4679H18.0993C18.6859 36.4679 19.1615 35.9923 19.1615 35.4057C19.1615 34.8191 18.6859 34.3435 18.0993 34.3435H17.5682C13.9496 34.3435 10.3535 34.0012 6.87178 33.3238C6.32061 33.2199 5.91933 32.7254 5.91933 32.1494V30.6978C5.91933 25.6806 10.0017 21.5994 15.0189 21.5994ZM9.54381 11.4459C9.54381 7.02121 13.1435 3.42269 17.567 3.42269C21.9917 3.42269 25.5914 7.02121 25.5914 11.4459C25.5914 15.8706 21.9917 19.4703 17.567 19.4703C13.1435 19.4703 9.54381 15.8706 9.54381 11.4459Z" fill="#58A429"/>
<path d="M33.6613 32.0444L31.0506 29.4338C30.6352 29.0183 29.9637 29.0183 29.5494 29.4338C29.1351 29.8492 29.134 30.5219 29.5494 30.9362L30.3461 31.7329H22.5837C21.9971 31.7329 21.5215 32.2085 21.5215 32.7951C21.5215 33.3816 21.9971 33.8573 22.5837 33.8573H30.3461L29.5494 34.6539C29.134 35.0694 29.134 35.7421 29.5494 36.1564C29.7571 36.3641 30.0286 36.4679 30.3 36.4679C30.5715 36.4679 30.8429 36.3641 31.0506 36.1564L33.6613 33.5457C34.0768 33.1326 34.0768 32.4599 33.6613 32.0444Z" fill="#58A429"/>
</svg>
