<svg width="42" height="42" viewBox="0 0 42 42" fill="none" xmlns="http://www.w3.org/2000/svg">
<path d="M21.6377 8.78218H23.1413V6.38398H21.6377V8.78218ZM39.5171 25.1622C39.3304 24.8254 39.0787 24.5292 38.7765 24.2906C38.4743 24.0519 38.1278 23.8757 37.7569 23.7722C37.3861 23.6686 36.9984 23.6398 36.6163 23.6874C36.2343 23.7349 35.8654 23.8579 35.5313 24.0492L34.7585 24.5196V18.06H30.4703V2.09998H17.9543V8.60997L11.1797 10.626V27.3756L8.2649 29.0556L8.0045 28.6734C7.76529 28.3002 7.39408 28.0311 6.96505 27.9197C6.53603 27.8084 6.08078 27.863 5.6903 28.0728L2.4731 29.8998C2.31138 30.0098 2.1931 30.1727 2.13866 30.3606C2.08423 30.5484 2.09704 30.7494 2.1749 30.9288C2.22064 31.0181 2.28408 31.0972 2.36137 31.1612C2.43865 31.2252 2.52815 31.2728 2.62443 31.3011C2.7207 31.3293 2.82173 31.3377 2.92135 31.3257C3.02098 31.3137 3.11711 31.2815 3.2039 31.2312L6.4211 29.4C6.46633 29.3663 6.523 29.3519 6.57883 29.3597C6.63465 29.3676 6.68512 29.3971 6.7193 29.442L12.5069 39.48C12.601 39.6593 12.7625 39.7939 12.9559 39.8542C13.1493 39.9144 13.3587 39.8954 13.538 39.8013C13.7173 39.7071 13.8519 39.5456 13.9122 39.3523C13.9725 39.1589 13.9534 38.9495 13.8593 38.7702L9.0125 30.3702L13.4393 27.804C14.9807 26.901 16.0517 26.9892 17.7695 27.5016L26.4005 29.82C26.581 29.8642 26.751 29.9437 26.9006 30.0539C27.0502 30.1642 27.1765 30.303 27.2722 30.4623C27.3679 30.6216 27.431 30.7983 27.458 30.9822C27.485 31.1661 27.4753 31.3535 27.4295 31.5336C27.2153 32.3484 26.3543 32.6466 25.5857 32.5206L18.9371 31.5714C18.743 31.5584 18.5507 31.6164 18.3962 31.7346C18.2417 31.8529 18.1354 32.0232 18.0971 32.214C18.0774 32.4094 18.1328 32.6051 18.2522 32.7611C18.3716 32.9171 18.5459 33.0219 18.7397 33.054L25.3715 34.02C26.8709 34.2342 28.4585 33.4614 28.8869 31.92C29.0497 31.1929 28.9422 30.4315 28.5845 29.778L36.2579 25.3596C36.4167 25.2591 36.5945 25.1926 36.7802 25.1643C36.9659 25.136 37.1555 25.1464 37.337 25.1949C37.5185 25.2434 37.688 25.329 37.8347 25.4463C37.9815 25.5635 38.1025 25.7099 38.1899 25.8762C38.6603 26.6448 38.2319 27.4176 37.5893 27.888L25.7999 36.456C25.1111 37.0566 24.6827 37.2708 23.1413 37.0566C21.2975 36.8424 16.5389 36.0696 14.9513 36.498C14.8589 36.5209 14.7721 36.5621 14.696 36.6192C14.6199 36.6763 14.556 36.7481 14.5082 36.8304C14.4604 36.9127 14.4296 37.0037 14.4177 37.0981C14.4058 37.1926 14.413 37.2884 14.4389 37.38C14.4896 37.5699 14.6107 37.7335 14.7777 37.8372C14.9447 37.941 15.1449 37.9773 15.3377 37.9386C16.4969 37.5942 21.4697 38.3586 22.9271 38.5392C24.3845 38.7198 25.4975 38.6652 26.7407 37.6362L38.5007 29.0724C39.8741 28.0434 40.3025 26.4138 39.5297 25.1286L39.5171 25.1622ZM33.2591 19.5762V25.3596L30.4703 26.9472V24.4272H32.2301V22.9194H30.4703V19.5594L33.2591 19.5762ZM16.0643 25.62V15.5946H14.5649V25.746C13.9057 25.9214 13.2718 26.1811 12.6791 26.5188V11.76L17.9543 10.1724V25.9602C17.3332 25.8008 16.7017 25.6857 16.0643 25.6158V25.62ZM19.4537 26.3928V3.59938H28.9793V27.804L27.5219 28.644C27.2994 28.4982 27.0515 28.3957 26.7911 28.3416L19.4537 26.3928ZM25.2833 23.7762H26.7827V21.378H25.2833V23.7762ZM21.6377 23.7762H23.1413V21.378H21.6377V23.7762ZM25.2833 18.7656H26.7827V16.4094H25.2833V18.7656ZM21.6377 18.7656H23.1413V16.4094H21.6377V18.7656ZM25.2833 13.7508H26.7827V11.3946H25.2833V13.7508ZM21.6377 13.7508H23.1413V11.3946H21.6377V13.7508ZM25.2833 8.78218H26.7827V6.38398H25.2833V8.78218Z" fill="#58A429"/>
</svg>
