<svg width="31" height="31" viewBox="0 0 31 31" fill="none" xmlns="http://www.w3.org/2000/svg">
<path d="M13.4419 30.0161C13.4412 30.0161 13.4403 30.0161 13.4394 30.0161C12.53 30.0154 11.6748 29.6606 11.032 29.0167L1.97763 19.9494C0.653289 18.6226 0.653289 16.4637 1.97763 15.137L14.183 2.9082C15.4409 1.64789 17.1145 0.953613 18.8954 0.953613H26.6391C28.5169 0.953613 30.0448 2.48124 30.0448 4.35938V12.0793C30.0448 13.859 29.3513 15.5319 28.0922 16.7895L15.8488 29.0201C15.2056 29.6624 14.3508 30.0161 13.4419 30.0161ZM18.8954 3.22412C17.7218 3.22412 16.619 3.68159 15.7901 4.5121L3.58455 16.7409C3.14304 17.1833 3.14304 17.9028 3.58455 18.3452L12.6389 27.4125C12.853 27.6269 13.1379 27.7454 13.4412 27.7456H13.4421C13.7451 27.7456 14.03 27.6276 14.2442 27.4137L26.4876 15.1833C27.3174 14.3546 27.7743 13.252 27.7743 12.0793V4.35938C27.7743 3.73339 27.2651 3.22412 26.6391 3.22412H18.8954ZM21.8141 12.4764C19.9361 12.4764 18.4083 10.9488 18.4083 9.07068C18.4083 7.19254 19.9361 5.66492 21.8141 5.66492C23.692 5.66492 25.2198 7.19254 25.2198 9.07068C25.2198 10.9488 23.692 12.4764 21.8141 12.4764ZM21.8141 7.93542C21.1881 7.93542 20.6788 8.44469 20.6788 9.07068C20.6788 9.69666 21.1881 10.2059 21.8141 10.2059C22.4402 10.2059 22.9493 9.69666 22.9493 9.07068C22.9493 8.44469 22.4402 7.93542 21.8141 7.93542Z" fill="#58A429"/>
</svg>
